#tb 0: 1/25
#media_type 0: video
#codec_id 0: rawvideo
#dimensions 0: 352x288
#sar 0: 0/1
0,          0,          0,        1,   304128, 0x8b061324
0,          1,          1,        1,   304128, 0x2e257fca
0,          2,          2,        1,   304128, 0xb7d37651
0,          3,          3,        1,   304128, 0x76730c42
0,          4,          4,        1,   304128, 0x6023efee
0,          5,          5,        1,   304128, 0x4dfbb3d5
0,          6,          6,        1,   304128, 0xfd17809a
0,          7,          7,        1,   304128, 0x7b9e1b7c
0,          8,          8,        1,   304128, 0xd8a09d56
0,          9,          9,        1,   304128, 0xc8459aa4
0,         10,         10,        1,   304128, 0x9f56a4d4
0,         11,         11,        1,   304128, 0x227032e0
0,         12,         12,        1,   304128, 0xc2163b17
0,         13,         13,        1,   304128, 0xbbe040d0
0,         14,         14,        1,   304128, 0x8e6d07ac
0,         15,         15,        1,   304128, 0x3462a2b4
0,         16,         16,        1,   304128, 0x3cdbff41
0,         17,         17,        1,   304128, 0xc75dce87
0,         18,         18,        1,   304128, 0x7bf2e7a2
0,         19,         19,        1,   304128, 0x041f240d
0,         20,         20,        1,   304128, 0xfe18a75a
0,         21,         21,        1,   304128, 0x307e3d35
0,         22,         22,        1,   304128, 0x6b044e91
0,         23,         23,        1,   304128, 0x7bbb0f85
0,         24,         24,        1,   304128, 0x719db44d
0,         25,         25,        1,   304128, 0x2655924d
0,         26,         26,        1,   304128, 0xe6275963
0,         27,         27,        1,   304128, 0xc1a7407c
0,         28,         28,        1,   304128, 0x47705a4d
0,         29,         29,        1,   304128, 0x2974f987
0,         30,         30,        1,   304128, 0x9b2c4242
0,         31,         31,        1,   304128, 0x33b3d6fe
0,         32,         32,        1,   304128, 0x30acfd44
0,         33,         33,        1,   304128, 0x1f6d8986
0,         34,         34,        1,   304128, 0xca921c37
0,         35,         35,        1,   304128, 0xc7b3dc18
0,         36,         36,        1,   304128, 0xfb3eac0f
0,         37,         37,        1,   304128, 0x581b9607
0,         38,         38,        1,   304128, 0x0695dff2
0,         39,         39,        1,   304128, 0xb1321436
0,         40,         40,        1,   304128, 0xd160a84c
0,         41,         41,        1,   304128, 0x8fd3d2c8
0,         42,         42,        1,   304128, 0x0ff76bbf
0,         43,         43,        1,   304128, 0xebe4df73
0,         44,         44,        1,   304128, 0x75532fa3
0,         45,         45,        1,   304128, 0x439b272b
0,         46,         46,        1,   304128, 0x854cfc58
0,         47,         47,        1,   304128, 0xe43a8ca9
0,         48,         48,        1,   304128, 0xa25bf153
0,         49,         49,        1,   304128, 0xed6bf4ea
